<svg width="105" height="67" viewBox="0 0 105 67" fill="none" xmlns="http://www.w3.org/2000/svg">
<g clip-path="url(#clip0_4_2)" filter="url(#filter0_d_4_2)">
<mask id="mask0_4_2" style="mask-type:luminance" maskUnits="userSpaceOnUse" x="4" y="0" width="97" height="59">
<path d="M101 0H4V59H101V0Z" fill="white"/>
</mask>
<g mask="url(#mask0_4_2)">
<path d="M16.5581 0V3.83066C15.5028 3.83066 14.6796 3.98157 14.0882 4.28338C13.4968 4.57357 13.2417 5.15977 13.3229 6.04199L13.8621 11.1785C14.0012 12.4786 13.8563 13.5292 13.4272 14.3301C13.0098 15.131 12.3662 15.7464 11.4966 16.1758C10.6385 16.5938 9.62386 16.8897 8.45271 17.0638C9.69343 17.2495 10.7428 17.5514 11.6009 17.9693C12.459 18.3871 13.0852 18.9907 13.4794 19.7801C13.8737 20.5695 14.0012 21.6258 13.8621 22.9492L13.3229 28.0857C13.2417 28.9679 13.4968 29.5541 14.0882 29.8443C14.6796 30.146 15.5028 30.297 16.5581 30.297V34.1277C13.3576 34.1277 11.1081 33.6401 9.80939 32.6651C8.52229 31.7016 8.00048 30.0475 8.24398 27.7026L8.76579 22.7227C8.85856 21.8406 8.70782 21.1499 8.31357 20.6507C7.93091 20.1516 7.36272 19.8033 6.60901 19.6059C5.85529 19.3971 4.98563 19.2926 4 19.2926V14.8351C4.97403 14.8351 5.8379 14.7364 6.59162 14.5391C7.34533 14.3301 7.91932 13.9761 8.31357 13.477C8.70782 12.9778 8.85856 12.2871 8.76579 11.4049L8.24398 6.45987C7.98889 4.06861 8.51068 2.39706 9.80939 1.4452C11.1081 0.481734 13.3576 0 16.5581 0Z" fill="url(#paint0_linear_4_2)"/>
<path d="M31.633 4.5097C34.5087 4.5097 36.6771 5.62408 38.1381 7.85282C39.6108 10.07 40.3471 13.1635 40.3471 17.1335C40.3471 21.115 39.6108 24.2318 38.1381 26.4837C36.6771 28.7241 34.5087 29.8443 31.633 29.8443C28.7342 29.8443 26.5541 28.7241 25.0931 26.4837C23.6436 24.2318 22.9189 21.115 22.9189 17.1335C22.9189 13.1635 23.6436 10.07 25.0931 7.85282C26.5541 5.62408 28.7342 4.5097 31.633 4.5097ZM31.633 8.49708C30.4039 8.49708 29.5052 9.15874 28.937 10.482C28.3689 11.7938 28.0847 14.0109 28.0847 17.1335C28.0847 18.155 28.1022 19.0662 28.1369 19.8671C28.1718 20.6565 28.224 21.3588 28.2935 21.974L34.1724 9.66367C33.8942 9.22258 33.5463 8.92078 33.1289 8.75826C32.7231 8.58414 32.2244 8.49708 31.633 8.49708ZM35.1465 17.1335C35.1465 15.7986 35.1175 14.6725 35.0595 13.7555L29.511 25.2301C29.7662 25.4738 30.0676 25.6421 30.4154 25.735C30.775 25.8278 31.1808 25.8743 31.633 25.8743C32.4564 25.8743 33.1231 25.5958 33.6333 25.0386C34.1551 24.4814 34.5377 23.5643 34.7812 22.2875C35.0248 20.9989 35.1465 19.2809 35.1465 17.1335Z" fill="url(#paint1_linear_4_2)"/>
<path d="M52.5 4.5097C55.3757 4.5097 57.5441 5.62408 59.0051 7.85282C60.4778 10.07 61.214 13.1635 61.214 17.1335C61.214 21.115 60.4778 24.2318 59.0051 26.4837C57.5441 28.7241 55.3757 29.8443 52.5 29.8443C49.601 29.8443 47.4211 28.7241 45.9601 26.4837C44.5106 24.2318 43.7859 21.115 43.7859 17.1335C43.7859 13.1635 44.5106 10.07 45.9601 7.85282C47.4211 5.62408 49.601 4.5097 52.5 4.5097ZM52.5 8.49708C51.2709 8.49708 50.3722 9.15874 49.804 10.482C49.2359 11.7938 48.9518 14.0109 48.9518 17.1335C48.9518 18.155 48.9692 19.0662 49.0039 19.8671C49.0387 20.6565 49.0909 21.3588 49.1605 21.974L55.0394 9.66367C54.7611 9.22258 54.4132 8.92078 53.9959 8.75826C53.5899 8.58414 53.0913 8.49708 52.5 8.49708ZM56.0135 17.1335C56.0135 15.7986 55.9845 14.6725 55.9265 13.7555L50.378 25.2301C50.633 25.4738 50.9346 25.6421 51.2825 25.735C51.642 25.8278 52.0478 25.8743 52.5 25.8743C53.3233 25.8743 53.99 25.5958 54.5003 25.0386C55.022 24.4814 55.4047 23.5643 55.6482 22.2875C55.8917 20.9989 56.0135 19.2809 56.0135 17.1335Z" fill="url(#paint2_linear_4_2)"/>
<path d="M72.1146 29.8095L66.8966 28.1902L75.889 9.26321H65.2964V5.11914H81.4549V8.84532L72.1146 29.8095Z" fill="url(#paint3_linear_4_2)"/>
<path d="M88.442 0C91.6423 0 93.8861 0.481734 95.1733 1.4452C96.472 2.40867 96.9996 4.06862 96.7561 6.42505L96.2342 11.4049C96.1414 12.2871 96.2922 12.9778 96.6865 13.477C97.0807 13.9761 97.6488 14.3301 98.391 14.5391C99.1447 14.7364 100.014 14.8351 101 14.8351V19.2926C100.026 19.2926 99.1622 19.3971 98.4084 19.6059C97.6547 19.8033 97.0807 20.1516 96.6865 20.6507C96.2922 21.1499 96.1414 21.8406 96.2342 22.7227L96.7561 27.6678C97.0228 30.0475 96.5009 31.719 95.1906 32.6824C93.8919 33.646 91.6423 34.1277 88.442 34.1277V30.297C89.5088 30.297 90.3379 30.146 90.9292 29.8443C91.5207 29.5541 91.7699 28.9679 91.6772 28.0857L91.1379 22.9492C90.9988 21.6374 91.1379 20.5868 91.5554 19.7976C91.9844 18.9965 92.6338 18.3871 93.5035 17.9693C94.3731 17.5397 95.3935 17.238 96.5647 17.0638C95.3239 16.8781 94.2688 16.5763 93.3991 16.1584C92.541 15.7405 91.9149 15.1369 91.5207 14.3476C91.1264 13.5466 90.9988 12.4903 91.1379 11.1785L91.6772 6.04199C91.7699 5.15977 91.5148 4.57357 90.9119 4.28338C90.3204 3.98157 89.4972 3.83066 88.442 3.83066V0Z" fill="url(#paint4_linear_4_2)"/>
<path d="M16.2745 42.162C17.2416 42.162 18.0208 42.4023 18.6121 42.8829C19.2036 43.3634 19.6349 44.0425 19.9063 44.9201C20.1845 45.7976 20.3238 46.8388 20.3238 48.0438C20.3238 49.1861 20.1568 50.2064 19.8228 51.1048C19.4888 51.9963 19.0053 52.6998 18.3722 53.2151C17.739 53.7237 16.9703 53.9778 16.0658 53.9778C14.9874 53.9778 14.1108 53.5913 13.4359 52.8181V57.906L10.1381 58.2508V42.5277H13.0602L13.2063 43.7708C13.6586 43.1928 14.1525 42.7819 14.6882 42.5381C15.224 42.2874 15.7527 42.162 16.2745 42.162ZM15.2518 44.5962C14.8691 44.5962 14.5317 44.7112 14.2395 44.941C13.9473 45.1707 13.6794 45.4842 13.4359 45.8812V50.5616C13.6655 50.9028 13.9055 51.1536 14.156 51.3137C14.4134 51.4739 14.7161 51.554 15.0639 51.554C15.6484 51.554 16.1041 51.2894 16.4311 50.76C16.7581 50.2237 16.9215 49.3323 16.9215 48.0856C16.9215 47.1662 16.8555 46.4558 16.7232 45.9543C16.5911 45.446 16.3998 45.0942 16.1493 44.8992C15.8988 44.6971 15.5997 44.5962 15.2518 44.5962Z" fill="url(#paint5_linear_4_2)"/>
<path d="M31.9882 50.4258C31.9882 50.8436 32.0438 51.1466 32.1552 51.3346C32.2734 51.5227 32.4613 51.6655 32.7186 51.763L32.0404 53.9361C31.3863 53.8734 30.8333 53.7305 30.3809 53.5077C29.9357 53.2778 29.5844 52.9331 29.3269 52.4735C28.9026 52.9818 28.3599 53.3614 27.6989 53.6122C27.038 53.8559 26.3632 53.9778 25.6743 53.9778C24.5333 53.9778 23.6219 53.654 22.94 53.0062C22.2652 52.3515 21.9278 51.5123 21.9278 50.4885C21.9278 49.2835 22.3974 48.3537 23.3366 47.699C24.2828 47.0444 25.6117 46.717 27.3232 46.717H28.8155V46.2991C28.8155 45.1639 28.0851 44.5962 26.6239 44.5962C26.2692 44.5962 25.8134 44.6485 25.2569 44.7529C24.7003 44.8504 24.1437 44.9931 23.5871 45.1812L22.8252 42.9874C23.5419 42.7157 24.2864 42.5102 25.0586 42.3709C25.8378 42.2317 26.5336 42.162 27.1458 42.162C28.7947 42.162 30.0122 42.4998 30.7984 43.1753C31.5916 43.844 31.9882 44.8121 31.9882 46.0797V50.4258ZM26.8118 51.6167C27.1667 51.6167 27.5389 51.5123 27.9285 51.3033C28.3181 51.0875 28.6138 50.7845 28.8155 50.3945V48.5975H28.0016C27.0832 48.5975 26.4083 48.7402 25.977 49.0258C25.5456 49.3044 25.3299 49.7153 25.3299 50.2586C25.3299 50.6834 25.4586 51.0178 25.7161 51.2615C25.9804 51.4984 26.3457 51.6167 26.8118 51.6167Z" fill="url(#paint6_linear_4_2)"/>
<path d="M45.6355 42.5277L41.9411 53.6227H38.0589L34.3227 42.5277H37.8815L40.0418 51.0944L42.2958 42.5277H45.6355Z" fill="url(#paint7_linear_4_2)"/>
<path d="M57.0286 50.4258C57.0286 50.8436 57.0842 51.1466 57.1956 51.3346C57.3138 51.5227 57.5017 51.6655 57.759 51.763L57.0808 53.9361C56.4267 53.8734 55.8737 53.7305 55.4214 53.5077C54.9761 53.2778 54.6248 52.9331 54.3673 52.4735C53.943 52.9818 53.4003 53.3614 52.7393 53.6122C52.0784 53.8559 51.4036 53.9778 50.7147 53.9778C49.5737 53.9778 48.6623 53.654 47.9804 53.0062C47.3056 52.3515 46.9682 51.5123 46.9682 50.4885C46.9682 49.2835 47.4379 48.3537 48.377 47.699C49.3232 47.0444 50.6521 46.717 52.3636 46.717H53.8559V46.2991C53.8559 45.1639 53.1255 44.5962 51.6645 44.5962C51.3096 44.5962 50.8538 44.6485 50.2973 44.7529C49.7407 44.8504 49.1841 44.9931 48.6275 45.1812L47.8658 42.9874C48.5823 42.7157 49.3268 42.5102 50.099 42.3709C50.8783 42.2317 51.574 42.162 52.1862 42.162C53.8351 42.162 55.0526 42.4998 55.8388 43.1753C56.632 43.844 57.0286 44.8121 57.0286 46.0797V50.4258ZM51.8522 51.6167C52.2071 51.6167 52.5793 51.5123 52.9689 51.3033C53.3585 51.0875 53.6542 50.7845 53.8559 50.3945V48.5975H53.042C52.1236 48.5975 51.4487 48.7402 51.0174 49.0258C50.5861 49.3044 50.3703 49.7153 50.3703 50.2586C50.3703 50.6834 50.4991 51.0178 50.7565 51.2615C51.0208 51.4984 51.3861 51.6167 51.8522 51.6167Z" fill="url(#paint8_linear_4_2)"/>
<path d="M60.2189 53.6226V42.5277H63.0993L63.3289 43.8126C63.8229 43.2555 64.3446 42.8411 64.8943 42.5695C65.4439 42.2978 66.0701 42.162 66.7728 42.162C67.7189 42.162 68.4634 42.451 69.0061 43.0292C69.5487 43.6072 69.82 44.4221 69.82 45.4737V53.6226H66.5223V46.4245C66.5223 45.7419 66.4458 45.2683 66.2927 45.0036C66.1466 44.732 65.8683 44.5962 65.4577 44.5962C65.1099 44.5962 64.776 44.7076 64.4559 44.9306C64.1428 45.1534 63.8297 45.4633 63.5168 45.8603V53.6226H60.2189Z" fill="url(#paint9_linear_4_2)"/>
<path d="M80.9314 42.162C81.7175 42.162 82.2985 42.4197 82.6742 42.9351C83.0568 43.4435 83.2481 44.2689 83.2481 45.411V53.6226H80.42V45.7872C80.42 45.3972 80.3817 45.1221 80.3052 44.9619C80.2356 44.8016 80.0895 44.7216 79.8669 44.7216C79.693 44.7216 79.512 44.7738 79.3242 44.8783C79.1433 44.9758 78.9416 45.1639 78.719 45.4424V53.6226H76.4022V45.7872C76.4022 45.3972 76.3638 45.1221 76.2873 44.9619C76.2177 44.8016 76.0716 44.7216 75.849 44.7216C75.6751 44.7216 75.4942 44.7738 75.3063 44.8783C75.1254 44.9758 74.9237 45.1639 74.7011 45.4424V53.6226H71.8311V42.5277H74.2523L74.4715 43.6037C74.8193 43.1301 75.1707 42.7714 75.5255 42.5277C75.8803 42.2839 76.3012 42.162 76.7883 42.162C77.2057 42.162 77.5605 42.2699 77.8527 42.4859C78.152 42.6948 78.3641 43.0256 78.4894 43.4783C78.8233 43.0883 79.1921 42.7714 79.5955 42.5277C79.9991 42.2839 80.4443 42.162 80.9314 42.162Z" fill="url(#paint10_linear_4_2)"/>
<path d="M95.1004 40.7516L95.8728 43.1753C95.4832 43.3286 95.0274 43.4401 94.5057 43.5097C93.9838 43.5793 93.3751 43.6141 92.6794 43.6141C93.3751 43.9137 93.9038 44.2862 94.2656 44.7321C94.6344 45.1707 94.8187 45.7488 94.8187 46.4663C94.8187 47.1836 94.6274 47.8244 94.2448 48.3886C93.862 48.9458 93.3195 49.3846 92.6168 49.7049C91.9141 50.0253 91.0826 50.1855 90.1225 50.1855C89.6633 50.1855 89.2354 50.1437 88.8389 50.0601C88.7205 50.1228 88.6302 50.2133 88.5676 50.3318C88.5049 50.4501 88.4736 50.5721 88.4736 50.6974C88.4736 50.8715 88.5431 51.0282 88.6824 51.1675C88.8285 51.3069 89.1659 51.3764 89.6946 51.3764H91.5105C92.3732 51.3764 93.1176 51.5157 93.7438 51.7944C94.3769 52.0729 94.8674 52.4526 95.2153 52.9331C95.5631 53.4137 95.7371 53.964 95.7371 54.5838C95.7371 55.7191 95.2397 56.614 94.2448 57.2687C93.2498 57.9234 91.7714 58.2508 89.8094 58.2508C88.3901 58.2508 87.2908 58.1045 86.5117 57.812C85.7393 57.5265 85.2002 57.1155 84.8941 56.5791C84.5949 56.0499 84.4453 55.4195 84.4453 54.6882H87.3673C87.3673 55.0086 87.43 55.2698 87.5552 55.4718C87.6874 55.6807 87.9344 55.834 88.2962 55.9315C88.6649 56.029 89.1972 56.0778 89.8929 56.0778C90.5956 56.0778 91.1313 56.022 91.5 55.9106C91.8688 55.7991 92.1192 55.6459 92.2515 55.4509C92.3906 55.2628 92.4602 55.0504 92.4602 54.8136C92.4602 54.4862 92.3314 54.2216 92.0741 54.0196C91.8166 53.8177 91.4097 53.7166 90.853 53.7166H89.0893C87.8926 53.7166 87.0229 53.4972 86.4803 53.0584C85.9376 52.6127 85.6663 52.0938 85.6663 51.5018C85.6663 51.0909 85.7741 50.7009 85.9898 50.3318C86.2124 49.9627 86.5221 49.6527 86.9187 49.4019C86.209 49.0258 85.701 48.5835 85.3949 48.0751C85.0888 47.5598 84.9358 46.9433 84.9358 46.226C84.9358 45.3902 85.148 44.6728 85.5724 44.0738C85.9968 43.4679 86.5811 43.0013 87.3256 42.6739C88.077 42.3466 88.9329 42.1829 89.8929 42.1829C90.7208 42.1968 91.441 42.1411 92.0532 42.0157C92.6654 41.8833 93.2151 41.7058 93.7021 41.4829C94.189 41.253 94.6552 41.0093 95.1004 40.7516ZM89.9764 44.3246C89.4546 44.3246 89.0406 44.4918 88.7345 44.8261C88.4283 45.1534 88.2753 45.6061 88.2753 46.1842C88.2753 46.7971 88.4319 47.2672 88.745 47.5945C89.058 47.9219 89.4686 48.0856 89.9764 48.0856C91.1034 48.0856 91.667 47.4378 91.667 46.1424C91.667 44.9306 91.1034 44.3246 89.9764 44.3246Z" fill="url(#paint11_linear_4_2)"/>
</g>
</g>
<defs>
<filter id="filter0_d_4_2" x="0" y="0" width="105" height="67" filterUnits="userSpaceOnUse" color-interpolation-filters="sRGB">
<feFlood flood-opacity="0" result="BackgroundImageFix"/>
<feColorMatrix in="SourceAlpha" type="matrix" values="0 0 0 0 0 0 0 0 0 0 0 0 0 0 0 0 0 0 127 0" result="hardAlpha"/>
<feOffset dy="4"/>
<feGaussianBlur stdDeviation="2"/>
<feComposite in2="hardAlpha" operator="out"/>
<feColorMatrix type="matrix" values="0 0 0 0 0 0 0 0 0 0 0 0 0 0 0 0 0 0 0.25 0"/>
<feBlend mode="normal" in2="BackgroundImageFix" result="effect1_dropShadow_4_2"/>
<feBlend mode="normal" in="SourceGraphic" in2="effect1_dropShadow_4_2" result="shape"/>
</filter>
<linearGradient id="paint0_linear_4_2" x1="1.94995" y1="36.7549" x2="103.972" y2="0.679719" gradientUnits="userSpaceOnUse">
<stop stop-color="#00C0FD"/>
<stop offset="1" stop-color="#E70FAA"/>
</linearGradient>
<linearGradient id="paint1_linear_4_2" x1="1.94996" y1="36.7549" x2="103.972" y2="0.679695" gradientUnits="userSpaceOnUse">
<stop stop-color="#00C0FD"/>
<stop offset="1" stop-color="#E70FAA"/>
</linearGradient>
<linearGradient id="paint2_linear_4_2" x1="1.94993" y1="36.7549" x2="103.972" y2="0.679696" gradientUnits="userSpaceOnUse">
<stop stop-color="#00C0FD"/>
<stop offset="1" stop-color="#E70FAA"/>
</linearGradient>
<linearGradient id="paint3_linear_4_2" x1="1.94993" y1="36.7549" x2="103.972" y2="0.679687" gradientUnits="userSpaceOnUse">
<stop stop-color="#00C0FD"/>
<stop offset="1" stop-color="#E70FAA"/>
</linearGradient>
<linearGradient id="paint4_linear_4_2" x1="1.94999" y1="36.7549" x2="103.972" y2="0.679732" gradientUnits="userSpaceOnUse">
<stop stop-color="#00C0FD"/>
<stop offset="1" stop-color="#E70FAA"/>
</linearGradient>
<linearGradient id="paint5_linear_4_2" x1="3.75558" y1="59.3454" x2="97.6381" y2="39.5069" gradientUnits="userSpaceOnUse">
<stop stop-color="#13B0F5"/>
<stop offset="1" stop-color="#CA24B4"/>
</linearGradient>
<linearGradient id="paint6_linear_4_2" x1="3.75555" y1="59.3454" x2="97.638" y2="39.5069" gradientUnits="userSpaceOnUse">
<stop stop-color="#13B0F5"/>
<stop offset="1" stop-color="#CA24B4"/>
</linearGradient>
<linearGradient id="paint7_linear_4_2" x1="3.75557" y1="59.3454" x2="97.6381" y2="39.5069" gradientUnits="userSpaceOnUse">
<stop stop-color="#13B0F5"/>
<stop offset="1" stop-color="#CA24B4"/>
</linearGradient>
<linearGradient id="paint8_linear_4_2" x1="3.75561" y1="59.3454" x2="97.6381" y2="39.5069" gradientUnits="userSpaceOnUse">
<stop stop-color="#13B0F5"/>
<stop offset="1" stop-color="#CA24B4"/>
</linearGradient>
<linearGradient id="paint9_linear_4_2" x1="3.75556" y1="59.3454" x2="97.6381" y2="39.5068" gradientUnits="userSpaceOnUse">
<stop stop-color="#13B0F5"/>
<stop offset="1" stop-color="#CA24B4"/>
</linearGradient>
<linearGradient id="paint10_linear_4_2" x1="3.75559" y1="59.3454" x2="97.638" y2="39.5069" gradientUnits="userSpaceOnUse">
<stop stop-color="#13B0F5"/>
<stop offset="1" stop-color="#CA24B4"/>
</linearGradient>
<linearGradient id="paint11_linear_4_2" x1="3.75555" y1="59.3454" x2="97.6381" y2="39.5069" gradientUnits="userSpaceOnUse">
<stop stop-color="#13B0F5"/>
<stop offset="1" stop-color="#CA24B4"/>
</linearGradient>
<clipPath id="clip0_4_2">
<rect width="97" height="59" fill="white" transform="translate(4)"/>
</clipPath>
</defs>
</svg>
