<svg width="1218" height="327" viewBox="0 0 1218 327" fill="none" xmlns="http://www.w3.org/2000/svg">
<path fill-rule="evenodd" clip-rule="evenodd" d="M1174 191C1149.69 191 1130 210.69 1130 235C1130 254.47 1142.6 270.915 1160.09 276.745C1162.28 277.13 1163.11 275.81 1163.11 274.655C1163.11 273.61 1163.06 270.145 1163.06 266.46C1152 268.495 1149.14 263.765 1148.26 261.29C1147.77 260.025 1145.62 256.12 1143.75 255.075C1142.21 254.25 1140.01 252.215 1143.69 252.16C1147.16 252.105 1149.64 255.35 1150.46 256.67C1154.42 263.325 1160.75 261.455 1163.28 260.3C1163.66 257.44 1164.82 255.515 1166.08 254.415C1156.29 253.315 1146.06 249.52 1146.06 232.69C1146.06 227.905 1147.77 223.945 1150.57 220.865C1150.13 219.765 1148.59 215.255 1151.01 209.205C1151.01 209.205 1154.69 208.05 1163.11 213.715C1166.63 212.725 1170.37 212.23 1174.11 212.23C1177.85 212.23 1181.59 212.725 1185.11 213.715C1193.53 207.995 1197.21 209.205 1197.21 209.205C1199.63 215.255 1198.09 219.765 1197.65 220.865C1200.46 223.945 1202.16 227.85 1202.16 232.69C1202.16 249.575 1191.88 253.315 1182.08 254.415C1183.68 255.79 1185.06 258.43 1185.06 262.555C1185.06 268.44 1185 273.17 1185 274.655C1185 275.81 1185.83 277.185 1188.03 276.745C1196.76 273.796 1204.35 268.182 1209.73 260.694C1215.1 253.205 1218 244.219 1218 235C1218 210.69 1198.31 191 1174 191Z" fill="black"/>
<mask id="mask0_6_74" style="mask-type:luminance" maskUnits="userSpaceOnUse" x="455" y="200" width="105" height="105">
<path d="M560 200H455V305H560V200Z" fill="white"/>
</mask>
<g mask="url(#mask0_6_74)">
<path d="M558.02 247.822L512.176 201.98C509.537 199.34 505.255 199.34 502.613 201.98L493.094 211.5L505.17 223.576C507.976 222.628 511.194 223.264 513.431 225.501C515.679 227.753 516.311 230.998 515.339 233.813L526.978 245.452C529.793 244.482 533.042 245.11 535.291 247.362C538.434 250.504 538.434 255.596 535.291 258.74C532.147 261.884 527.055 261.884 523.91 258.74C521.545 256.373 520.961 252.901 522.158 249.989L511.305 239.135L511.303 267.697C512.09 268.086 512.809 268.6 513.431 269.219C516.574 272.361 516.574 277.453 513.431 280.6C510.287 283.742 505.193 283.742 502.054 280.6C498.911 277.453 498.911 272.361 502.054 269.219C502.807 268.466 503.702 267.869 504.687 267.463V238.635C503.7 238.232 502.805 237.635 502.054 236.879C499.672 234.501 499.1 231.007 500.32 228.083L488.415 216.178L456.981 247.61C454.34 250.252 454.34 254.535 456.981 257.176L502.826 303.018C505.465 305.658 509.746 305.658 512.389 303.018L558.019 257.388C560.66 254.747 560.66 250.462 558.019 247.822" fill="#DE4C36"/>
</g>
<mask id="mask1_6_74" style="mask-type:luminance" maskUnits="userSpaceOnUse" x="673" y="9" width="113" height="101">
<path d="M786 9H673V110H786V9Z" fill="white"/>
</mask>
<g mask="url(#mask1_6_74)">
<path d="M765.906 41.7027C764.703 41.2887 763.49 40.9051 762.269 40.5523C762.474 39.7106 762.663 38.8792 762.831 38.0623C765.584 24.6484 763.784 13.8418 757.636 10.2838C751.742 6.8728 742.102 10.4295 732.366 18.9334C731.406 19.773 730.468 20.6368 729.552 21.524C728.939 20.9341 728.315 20.3556 727.68 19.7888C717.477 10.6962 707.249 6.86394 701.108 10.4322C695.219 13.8538 693.475 24.0127 695.954 36.7254C696.2 37.9844 696.479 39.237 696.789 40.4819C695.341 40.8947 693.944 41.3342 692.607 41.802C680.644 45.9881 673.005 52.5483 673.005 59.3529C673.005 66.3808 681.206 73.43 693.666 77.7044C694.676 78.0495 695.695 78.3692 696.721 78.6634C696.388 80.0042 696.092 81.354 695.834 82.7114C693.471 95.2035 695.316 105.122 701.189 108.522C707.255 112.033 717.437 108.425 727.351 99.7268C728.154 99.0197 728.941 98.2925 729.708 97.546C730.7 98.5066 731.719 99.4393 732.763 100.343C742.366 108.636 751.85 111.985 757.718 108.576C763.778 105.055 765.748 94.3995 763.191 81.4356C762.989 80.42 762.763 79.4094 762.513 78.4047C763.228 78.1921 763.93 77.9733 764.614 77.7456C777.567 73.4384 785.995 66.4748 785.995 59.3529C785.995 52.5235 778.109 45.919 765.906 41.7027ZM763.096 73.1474C762.478 73.3525 761.844 73.5505 761.198 73.7432C759.768 69.1995 757.839 64.3684 755.477 59.3764C757.73 54.5036 759.586 49.734 760.976 45.22C762.132 45.5558 763.253 45.9097 764.335 46.2832C774.791 49.8961 781.169 55.2372 781.169 59.3529C781.169 63.7367 774.281 69.4277 763.096 73.1474ZM758.456 82.3765C759.586 88.1087 759.748 93.2916 758.999 97.3435C758.326 100.984 756.973 103.412 755.299 104.384C751.738 106.453 744.124 103.764 735.911 96.6707C734.94 95.8305 733.993 94.9634 733.07 94.0703C736.254 90.5757 739.436 86.5131 742.541 82.0009C748.004 81.5145 753.164 80.7189 757.844 79.6331C758.069 80.5426 758.273 81.4573 758.456 82.3765ZM711.526 104.026C708.047 105.259 705.276 105.295 703.601 104.325C700.037 102.262 698.555 94.298 700.576 83.6151C700.816 82.3527 701.092 81.0972 701.401 79.8502C706.029 80.8779 711.152 81.6168 716.628 82.0624C719.754 86.4776 723.028 90.5358 726.327 94.0894C725.626 94.7703 724.908 95.4338 724.174 96.0793C719.79 99.9252 715.397 102.654 711.526 104.026ZM695.228 73.1204C689.718 71.2302 685.168 68.7738 682.049 66.0933C679.247 63.6849 677.832 61.2932 677.832 59.3529C677.832 55.2234 683.966 49.9564 694.196 46.3766C695.438 45.9425 696.737 45.5328 698.086 45.1483C699.5 49.7641 701.354 54.5904 703.593 59.4708C701.325 64.4233 699.444 69.3267 698.016 73.997C697.08 73.7278 696.15 73.4355 695.228 73.1204ZM700.691 35.7947C698.568 24.9031 699.978 16.6871 703.527 14.625C707.307 12.4287 715.665 15.5601 724.475 23.4115C725.05 23.9247 725.615 24.4482 726.171 24.9819C722.888 28.52 719.644 32.5481 716.545 36.9371C711.231 37.4315 706.145 38.2253 701.468 39.2889C701.18 38.1311 700.921 36.9657 700.691 35.7947ZM749.43 47.8739C748.325 45.9589 747.18 44.0679 745.994 42.2024C749.599 42.66 753.053 43.2673 756.297 44.0098C755.323 47.1426 754.109 50.4175 752.681 53.7753C751.636 51.7867 750.553 49.8191 749.43 47.8739ZM729.554 28.4443C731.781 30.8652 734.01 33.5678 736.204 36.5003C731.755 36.2895 727.298 36.2886 722.849 36.4977C725.044 33.5922 727.293 30.8931 729.554 28.4443ZM709.551 47.9071C708.442 49.8367 707.379 51.792 706.361 53.7713C704.956 50.4255 703.753 47.1355 702.771 43.9584C705.995 43.2346 709.433 42.6427 713.015 42.1936C711.816 44.0705 710.661 45.9758 709.551 47.9071ZM713.118 76.8569C709.417 76.4423 705.927 75.8811 702.704 75.1767C703.702 71.9429 704.931 68.5829 706.367 65.1653C707.389 67.1461 708.457 69.1026 709.57 71.0331C710.715 73.0176 711.9 74.9614 713.118 76.8569ZM729.688 90.6027C727.4 88.1255 725.118 85.3848 722.889 82.4372C725.053 82.5222 727.258 82.5657 729.5 82.5657C731.803 82.5657 734.08 82.5138 736.321 82.4137C734.12 85.4145 731.899 88.1592 729.688 90.6027ZM752.726 64.9908C754.237 68.446 755.51 71.7883 756.52 74.9667C753.244 75.7171 749.707 76.3214 745.98 76.7701C747.175 74.87 748.331 72.9462 749.449 70.9998C750.586 69.0215 751.678 67.0179 752.726 64.9908ZM745.268 68.5794C743.556 71.5635 741.749 74.4909 739.848 77.3571C736.404 77.6019 732.952 77.7235 729.5 77.7216C725.984 77.7216 722.563 77.6118 719.27 77.3974C717.319 74.5378 715.477 71.6053 713.747 68.6059C712.025 65.6225 710.418 62.5745 708.926 59.4685C710.414 56.3619 712.017 53.3124 713.733 50.3267C715.448 47.3402 717.275 44.4206 719.211 41.5734C722.571 41.3182 726.017 41.1853 729.5 41.1853C732.998 41.1853 736.449 41.3196 739.808 41.5765C741.724 44.4195 743.54 47.3295 745.252 50.301C746.974 53.2802 748.598 56.3147 750.123 59.3999C748.614 62.5166 746.994 65.5784 745.268 68.5794ZM755.225 14.4806C759.009 16.6707 760.48 25.5024 758.103 37.0842C757.951 37.8231 757.781 38.5757 757.595 39.339C752.907 38.2528 747.817 37.4452 742.487 36.9433C739.383 32.506 736.166 28.4717 732.936 24.9793C733.783 24.1604 734.649 23.3628 735.535 22.5872C743.877 15.3014 751.673 12.4247 755.225 14.4806ZM729.5 49.2263C735.072 49.2263 739.59 53.7603 739.59 59.3529C739.59 64.9456 735.072 69.4795 729.5 69.4795C723.928 69.4795 719.41 64.9456 719.41 59.3529C719.41 53.7603 723.928 49.2263 729.5 49.2263Z" fill="#00D8FF"/>
</g>
<mask id="mask2_6_74" style="mask-type:luminance" maskUnits="userSpaceOnUse" x="226" y="218" width="117" height="87">
<path d="M343 218H226V305H343V218Z" fill="white"/>
</mask>
<g mask="url(#mask2_6_74)">
<path d="M326.673 268.077C322.603 268.097 319.065 269.069 316.104 270.506C315.016 268.372 313.93 266.471 313.738 265.076C313.525 263.449 313.269 262.456 313.525 260.512C313.781 258.568 314.931 255.8 314.91 255.589C314.889 255.378 314.654 254.385 312.31 254.364C309.966 254.342 307.941 254.807 307.707 255.42C307.472 256.033 307.025 257.427 306.727 258.864C306.322 260.977 302.039 268.52 299.588 272.471C298.799 270.929 298.117 269.576 297.968 268.499C297.755 266.872 297.499 265.879 297.755 263.935C298.011 261.991 299.162 259.223 299.14 259.012C299.119 258.801 298.884 257.807 296.54 257.787C294.196 257.765 292.171 258.23 291.937 258.843C291.703 259.456 291.447 260.892 290.957 262.287C290.467 263.682 284.777 276.275 283.285 279.528C282.682 280.845 282.05 282.149 281.389 283.438C281.389 283.438 281.367 283.501 281.303 283.607C281.095 284.011 280.882 284.412 280.664 284.811V284.832C280.344 285.403 280.004 285.931 279.833 285.931C279.705 285.931 279.471 284.41 279.876 282.339C280.728 277.965 282.752 271.162 282.731 270.929C282.731 270.802 283.115 269.619 281.41 269.006C279.748 268.393 279.151 269.407 279.002 269.407C278.853 269.407 278.746 269.767 278.746 269.767C278.746 269.767 280.6 262.118 275.209 262.118C271.842 262.118 267.196 265.773 264.894 269.069C262.278 270.481 259.664 271.897 257.052 273.317C255.795 274.014 254.495 274.711 253.28 275.366C253.195 275.282 253.11 275.176 253.024 275.091C246.503 268.182 234.442 263.301 234.953 254.026C235.145 250.645 236.317 241.77 258.118 230.995C276.061 222.226 290.339 224.655 292.811 230.044C296.348 237.735 285.161 252.018 266.62 254.089C259.546 254.871 255.837 252.166 254.9 251.152C253.92 250.095 253.77 250.032 253.408 250.243C252.812 250.561 253.195 251.511 253.408 252.06C253.962 253.497 256.242 256.033 260.099 257.28C263.509 258.378 271.799 258.991 281.836 255.145C293.067 250.835 301.847 238.855 299.268 228.818C296.689 218.634 279.641 215.274 263.509 220.958C253.92 224.339 243.52 229.663 236.04 236.594C227.154 244.834 225.747 251.997 226.322 254.998C228.39 265.647 243.201 272.577 249.125 277.711C248.826 277.88 248.549 278.029 248.315 278.155C245.353 279.613 234.058 285.466 231.245 291.657C228.049 298.672 231.757 303.701 234.208 304.376C241.815 306.469 249.636 302.708 253.834 296.495C258.032 290.283 257.521 282.212 255.582 278.514C255.56 278.472 255.539 278.43 255.496 278.387C256.264 277.944 257.052 277.479 257.819 277.035C259.23 276.209 260.658 275.413 262.103 274.647C261.378 276.613 260.845 278.958 260.59 282.339C260.27 286.311 261.911 291.466 264.063 293.495C265.022 294.383 266.152 294.404 266.876 294.404C269.391 294.404 270.521 292.333 271.778 289.882C273.312 286.882 274.697 283.395 274.697 283.395C274.697 283.395 272.971 292.819 277.66 292.819C279.364 292.819 281.09 290.621 281.858 289.502V289.523C281.858 289.523 281.9 289.459 281.986 289.311C282.156 289.037 282.263 288.867 282.263 288.867V288.826C282.944 287.642 284.479 284.959 286.759 280.5C289.7 274.753 292.534 267.57 292.534 267.57C292.534 267.57 292.79 269.323 293.663 272.239C294.175 273.951 295.24 275.831 296.093 277.648C295.411 278.599 294.985 279.127 294.985 279.127L295.006 279.148C294.452 279.866 293.855 280.648 293.195 281.409C290.872 284.156 288.102 287.305 287.718 288.213C287.27 289.29 287.377 290.072 288.23 290.706C288.848 291.171 289.955 291.234 291.085 291.171C293.174 291.023 294.644 290.516 295.368 290.199C296.498 289.798 297.819 289.185 299.055 288.276C301.335 286.607 302.72 284.219 302.593 281.071C302.529 279.339 301.953 277.606 301.25 275.979C301.463 275.683 301.655 275.387 301.868 275.091C305.469 269.872 308.261 264.146 308.261 264.146C308.261 264.146 308.517 265.9 309.391 268.816C309.817 270.295 310.691 271.901 311.458 273.464C308.069 276.19 305.981 279.359 305.235 281.43C303.893 285.276 304.937 287.008 306.919 287.41C307.813 287.6 309.092 287.177 310.03 286.776C311.223 286.396 312.63 285.741 313.972 284.768C316.253 283.1 318.448 280.775 318.32 277.627C318.256 276.19 317.872 274.774 317.339 273.401C320.216 272.218 323.924 271.563 328.655 272.112C338.799 273.295 340.802 279.571 340.418 282.212C340.035 284.853 337.904 286.29 337.201 286.734C336.497 287.178 336.263 287.325 336.327 287.642C336.412 288.107 336.753 288.086 337.35 288.001C338.181 287.854 342.678 285.867 342.869 281.007C343.189 274.796 337.222 268.013 326.673 268.077ZM248.421 294.235C245.054 297.869 240.366 299.242 238.342 298.08C236.168 296.833 237.021 291.466 241.155 287.621C243.669 285.276 246.908 283.099 249.061 281.768C249.551 281.472 250.276 281.05 251.149 280.522C251.298 280.437 251.384 280.395 251.384 280.395L251.895 280.078C253.408 285.571 251.959 290.41 248.421 294.235ZM272.929 277.711C271.756 280.543 269.306 287.79 267.814 287.389C266.535 287.051 265.747 281.557 267.558 276.127C268.475 273.401 270.414 270.147 271.543 268.88C273.376 266.851 275.401 266.174 275.89 266.999C276.509 268.077 273.653 275.937 272.929 277.711ZM293.152 287.304C292.662 287.558 292.193 287.727 291.98 287.6C291.831 287.515 292.193 287.177 292.193 287.177C292.193 287.177 294.729 284.473 295.731 283.247C296.306 282.529 296.988 281.684 297.713 280.733V281.007C297.713 284.241 294.558 286.417 293.152 287.304ZM308.751 283.776C308.389 283.522 308.453 282.677 309.667 280.036C310.136 279 311.244 277.268 313.141 275.599C313.354 276.275 313.504 276.93 313.482 277.542C313.461 281.621 310.52 283.142 308.751 283.776Z" fill="#CD6799"/>
</g>
<mask id="mask3_6_74" style="mask-type:luminance" maskUnits="userSpaceOnUse" x="1127" y="0" width="88" height="87">
<path d="M1215 0H1127V87H1215V0Z" fill="white"/>
</mask>
<g mask="url(#mask3_6_74)">
<path d="M1127 75.7821C1127 81.9781 1132.08 87 1138.35 87H1203.65C1209.92 87 1215 81.9774 1215 75.7821V11.2182C1215 5.02187 1209.92 0 1203.65 0H1138.35C1132.08 0 1127 5.02255 1127 11.2179V75.7821Z" fill="#563D7C"/>
<path d="M1163.49 38.4832V26.1629H1174.46C1175.51 26.1629 1176.51 26.2489 1177.48 26.4212C1178.45 26.5931 1179.31 26.9003 1180.06 27.3431C1180.8 27.786 1181.4 28.4007 1181.85 29.1875C1182.3 29.9746 1182.52 30.9829 1182.52 32.2121C1182.52 34.4255 1181.85 36.0241 1180.51 37.0076C1179.16 37.9915 1177.45 38.4832 1175.36 38.4832H1163.49ZM1151.78 17.1621V69.8379H1177.6C1179.98 69.8379 1182.31 69.5429 1184.57 68.9526C1186.84 68.3623 1188.85 67.4525 1190.62 66.223C1192.38 64.9934 1193.79 63.407 1194.83 61.4645C1195.88 59.5216 1196.4 57.2222 1196.4 54.5663C1196.4 51.2709 1195.59 48.4553 1193.98 46.1192C1192.36 43.7828 1189.91 42.1474 1186.62 41.2129C1189.01 40.0819 1190.82 38.6307 1192.04 36.8601C1193.25 35.0895 1193.86 32.8765 1193.86 30.2203C1193.86 27.7612 1193.45 25.6956 1192.63 24.0232C1191.81 22.3512 1190.65 21.0108 1189.16 20.0025C1187.67 18.9942 1185.88 18.2686 1183.79 17.8262C1181.7 17.3833 1179.39 17.1621 1176.85 17.1621H1151.78ZM1163.49 60.8371V46.3771H1176.25C1178.79 46.3771 1180.83 46.9548 1182.37 48.111C1183.91 49.2668 1184.69 51.1971 1184.69 53.9023C1184.69 55.2797 1184.45 56.4107 1183.98 57.296C1183.5 58.1813 1182.87 58.8823 1182.07 59.3986C1181.28 59.9151 1180.36 60.2839 1179.31 60.5054C1178.27 60.7263 1177.17 60.8371 1176.03 60.8371H1163.49Z" fill="white"/>
</g>
<path d="M36.8438 252.084C40.6646 236.801 50.2167 229.159 65.5 229.159C88.425 229.159 91.2906 246.353 102.753 249.219C110.395 251.129 117.081 248.264 122.812 240.622C118.992 255.905 109.44 263.547 94.1562 263.547C71.2313 263.547 68.3656 246.353 56.9031 243.487C49.2615 241.577 42.575 244.443 36.8438 252.084ZM8.1875 286.472C12.0083 271.189 21.5604 263.547 36.8438 263.547C59.7687 263.547 62.6344 280.741 74.0969 283.606C81.7385 285.517 88.425 282.651 94.1562 275.009C90.3354 290.293 80.7833 297.934 65.5 297.934C42.575 297.934 39.7094 280.741 28.2469 277.875C20.6052 275.965 13.9187 278.83 8.1875 286.472Z" fill="#44A8B3"/>
<path d="M1006.54 196.605L986.354 186.889C985.214 186.339 983.932 186.158 982.685 186.37C981.437 186.582 980.287 187.177 979.392 188.072L913.33 248.3C912.528 249.027 912.049 250.043 911.996 251.124C911.944 252.205 912.323 253.263 913.05 254.064C913.138 254.159 913.225 254.25 913.32 254.334L918.713 259.234C919.418 259.875 920.325 260.25 921.277 260.292C922.229 260.334 923.166 260.042 923.925 259.465L1003.5 199.125C1004.1 198.669 1004.81 198.39 1005.57 198.319C1006.32 198.248 1007.07 198.388 1007.75 198.723C1008.42 199.058 1008.99 199.576 1009.39 200.217C1009.79 200.858 1010 201.598 1010 202.352V202.117C1010 200.966 1009.67 199.837 1009.06 198.862C1008.45 197.887 1007.57 197.104 1006.54 196.605Z" fill="#0065A9"/>
<path d="M1006.54 273.395L986.354 283.115C985.214 283.662 983.932 283.843 982.685 283.631C981.438 283.419 980.288 282.825 979.392 281.932L913.33 221.7C912.528 220.973 912.049 219.957 911.996 218.876C911.944 217.795 912.323 216.737 913.05 215.936C913.138 215.841 913.225 215.75 913.32 215.666L918.713 210.766C919.418 210.122 920.328 209.746 921.282 209.704C922.236 209.661 923.175 209.956 923.935 210.535L1003.5 270.875C1004.1 271.331 1004.81 271.61 1005.57 271.681C1006.32 271.752 1007.07 271.612 1007.75 271.277C1008.42 270.942 1008.99 270.424 1009.39 269.783C1009.79 269.142 1010 268.403 1010 267.648V267.9C1010 269.049 1009.67 270.173 1009.06 271.145C1008.44 272.117 1007.57 272.896 1006.54 273.395Z" fill="#007ACC"/>
<path d="M986.354 283.115C985.214 283.662 983.932 283.843 982.685 283.631C981.438 283.419 980.288 282.825 979.392 281.932C979.895 282.428 980.533 282.764 981.226 282.899C981.919 283.034 982.637 282.962 983.289 282.691C983.941 282.42 984.499 281.963 984.892 281.376C985.285 280.79 985.497 280.1 985.5 279.394V190.606C985.501 189.897 985.291 189.203 984.897 188.613C984.503 188.023 983.942 187.563 983.287 187.292C982.631 187.02 981.91 186.949 981.214 187.088C980.518 187.227 979.88 187.57 979.378 188.072C980.273 187.177 981.423 186.582 982.67 186.37C983.917 186.157 985.2 186.337 986.34 186.886L1006.52 196.588C1007.56 197.085 1008.44 197.866 1009.05 198.841C1009.67 199.817 1010 200.946 1010 202.1V267.9C1010 269.053 1009.67 270.182 1009.06 271.158C1008.45 272.134 1007.57 272.917 1006.53 273.416L986.354 283.115Z" fill="#1F9CF0"/>
<path d="M454.5 9.5H559.5V114.5H454.5V9.5Z" fill="#F5DE19"/>
<path d="M525.034 91.5312C525.928 93.3485 527.318 94.8759 529.043 95.9375C530.768 96.9991 532.758 97.5515 534.784 97.5313C538.871 97.5313 541.485 95.4875 541.485 92.6562C541.485 89.2812 538.8 88.0738 534.3 86.105L531.832 85.0475C524.707 82.0138 519.982 78.215 519.982 70.1825C519.982 62.7838 525.607 57.1475 534.431 57.1475C537.288 56.9412 540.142 57.5805 542.637 58.9856C545.132 60.3907 547.159 62.4994 548.464 65.0488L540.75 69.98C540.248 68.716 539.373 67.6345 538.242 66.879C537.11 66.1236 535.776 65.7298 534.416 65.75C533.823 65.6906 533.224 65.7555 532.657 65.9404C532.09 66.1254 531.567 66.4265 531.123 66.8244C530.679 67.2224 530.323 67.7085 530.077 68.2518C529.831 68.7951 529.701 69.3837 529.695 69.98C529.695 72.9388 531.529 74.1388 535.762 75.98L538.23 77.0375C546.615 80.6338 551.355 84.2975 551.355 92.5363C551.355 101.42 544.376 106.287 535.005 106.287C531.354 106.52 527.713 105.691 524.522 103.901C521.332 102.11 518.727 99.4342 517.024 96.1963L525.034 91.5312ZM490.177 92.3863C491.726 95.135 493.136 97.46 496.526 97.46C499.766 97.46 501.814 96.1925 501.814 91.2612V57.71H511.68V91.3925C511.68 101.607 505.68 106.257 496.946 106.257C493.859 106.426 490.793 105.657 488.151 104.051C485.51 102.444 483.416 100.076 482.145 97.2575L490.177 92.3863Z" fill="black"/>
<path d="M245.133 109.154L236.71 15.4375H329.29L320.856 109.139L282.944 119.562L245.133 109.154Z" fill="#1572B6"/>
<path d="M283 111.597L313.637 103.174L320.845 23.1018H283V111.597Z" fill="#33A9DC"/>
<path d="M283 57.054H298.338L299.395 45.2842H283V33.7895H312.062L311.785 36.8724L308.939 68.5487H283V57.054Z" fill="white"/>
<path d="M283.071 86.9044L283.019 86.9193L270.111 83.4609L269.286 74.2942H257.65L259.274 92.3413L283.015 98.8788L283.071 98.8639V86.9044Z" fill="#EBEBEB"/>
<path d="M297.351 68.0615L295.956 83.4534L283.03 86.9119V98.8714L306.79 92.3412L306.966 90.4001L308.98 68.0615H297.351Z" fill="white"/>
<path d="M283.041 33.7895V45.2842H255.044L254.811 42.6996L254.283 36.8724L254.005 33.7895H283.041ZM283 57.054V68.5487H270.254L270.021 65.9641L269.496 60.1369L269.219 57.054H283Z" fill="#EBEBEB"/>
<path d="M22.1325 111.004L13.7062 16.5H106.294L97.8562 110.989L59.9437 121.5L22.1325 111.004Z" fill="#E44F26"/>
<path d="M60 113.467L90.6375 104.974L97.845 24.2287H60V113.467Z" fill="#F1662A"/>
<path d="M60 59.2763H44.6625L43.605 47.4075H60V35.8163H30.9375L31.215 38.9288L34.0613 70.8675H60V59.2763ZM60 89.3775L59.9475 89.3925L47.04 85.9088L46.215 76.665H34.5787L36.2025 94.86L59.9475 101.452L60 101.438V89.3775Z" fill="#EBEBEB"/>
<path d="M59.9587 59.2763V70.8675H74.2312L72.8887 85.9013L59.9587 89.3888V101.449L83.7225 94.86L83.895 92.9025L86.6175 62.3888L86.9025 59.2763H59.9587ZM59.9587 35.8163V47.4075H87.9562L88.1887 44.805L88.7175 38.9288L88.995 35.8163H59.9587Z" fill="white"/>
<path d="M720.365 312.745C718.801 312.471 717.181 311.729 716.263 310.908C715.639 310.253 715.283 309.389 715.265 308.485C715.265 307.566 715.734 306.276 716.476 304.99C716.926 304.266 717.279 303.486 717.53 302.665C717.688 302.099 718.018 301.18 718.273 300.595L718.723 299.523L718.839 292.356C718.899 288.393 719.015 284.721 719.113 284.151C719.368 282.509 719.795 280.908 720.361 279.348L720.793 278.313L720.166 277.941C719.6 277.589 719.131 277.101 717.275 274.893C714.991 272.196 711.984 270.711 707.724 270.205C706.336 270.07 704.93 269.969 703.524 269.913C697.273 269.62 693.699 268.311 690.478 265.146C688.074 262.784 686.825 260.028 686.319 255.966C685.636 250.476 684.875 247.664 683.469 245.38C683.122 244.816 682.723 244.286 682.276 243.798L681.71 243.231L680.461 244.034C679.779 244.484 678.819 245.05 678.35 245.305C676.786 246.164 675.301 247.12 673.876 248.155C670.381 250.694 666.571 253.878 664.483 255.966C663.545 256.904 663.058 257.312 662.84 257.275C661.415 257.061 662.506 250.889 664.831 246.239C667.801 240.243 672.8 234.715 678.583 230.984C683.33 227.916 691.006 223.698 694.558 222.213C700.865 219.576 709.029 216.723 714.616 215.2C715.79 214.866 716.51 214.574 716.998 214.244C718.093 213.483 719.165 213.111 720.395 213.093C721.43 213.074 721.528 213.055 722.525 212.388C723.699 211.626 724.048 211.585 725.221 211.998L725.983 212.271L726.92 211.626L727.858 211L729.204 211.019C730.239 211.038 730.708 211 731.158 210.805C731.724 210.55 731.743 210.513 731.9 209.575C732.253 207.543 732.29 206.526 732.076 205.296C731.803 203.676 731.765 197.388 732.039 196.154C732.331 194.826 732.526 194.553 733.524 194.065C735.009 193.341 736.123 193.128 738.68 193.128C741.804 193.128 743.386 193.559 744.56 194.691C745.614 195.708 745.79 198.089 745.243 203.676C744.909 206.898 744.871 207.798 744.969 209.905C745.006 211.251 745.104 212.523 745.145 212.699C745.224 213.033 745.303 213.051 746.435 213.07C747.549 213.089 747.744 213.149 748.798 213.696C749.814 214.225 750.575 214.87 750.733 215.339C750.751 215.436 750.928 215.436 751.239 215.339C751.843 215.163 752.371 215.358 752.803 215.886C753.058 216.22 753.211 216.276 753.8 216.276C754.603 216.276 754.895 216.471 755.559 217.45C755.869 217.889 756.295 218.234 756.789 218.448C757.884 218.995 759.369 220.518 759.935 221.729C760.813 223.525 760.989 225.614 760.441 227.489C760.246 228.194 760.246 228.213 760.655 228.895C761.514 230.361 761.829 232.158 761.476 233.68L761.281 234.58L761.866 235.165C764.776 238.075 764.345 242.823 760.794 247.06C760.397 247.544 760.062 248.076 759.796 248.643C759.114 250.458 758.33 251.729 757.318 252.783L756.283 253.836H755.229C754.175 253.836 752.69 253.484 751.79 253.015C751.419 252.82 751.4 252.82 751.479 253.053C751.715 253.911 752.3 257.406 752.495 259.341C752.806 262.311 752.709 266.628 752.3 268.484C752.001 269.859 751.501 271.182 750.815 272.41C750.425 273.036 750.406 273.171 750.481 273.933C750.598 275.005 750.346 276.805 749.915 277.994C749.386 279.381 749.191 280.026 749.075 280.728C748.978 281.331 748.978 281.331 749.409 281.331C749.975 281.331 750.286 281.665 750.286 282.329C750.286 282.621 750.031 284.204 749.72 285.824C748.861 290.376 748.801 290.883 748.801 295.296C748.783 299.849 748.783 299.808 749.818 300.49L752.143 301.994C754.143 303.321 756.285 304.422 758.529 305.275C761.791 306.565 762.241 306.895 762.241 307.99C762.241 308.478 762.144 308.654 761.735 309.044C760.486 310.255 758.023 310.529 753.061 310C750.483 309.758 747.896 309.635 745.306 309.629C738.47 309.531 737.473 309.295 736.576 307.596C736.07 306.621 736.168 305.35 736.869 303.261C737.18 302.343 737.454 301.405 737.69 300.449C738.159 298.184 737.848 295.488 736.753 292.443L735.815 289.844C734.896 287.208 734.39 282.381 734.938 281.29C735.035 281.076 735.211 281.035 735.68 281.054L736.265 281.114L736.753 280.098C737.124 279.295 737.533 278.77 738.646 277.656L740.071 276.231L739.993 275.313C739.933 274.435 738.781 270.175 738.624 270.194C738.564 270.194 738.253 270.625 737.9 271.169C737.041 272.459 735.148 274.45 734.071 275.174C733.603 275.485 733.213 275.856 733.213 275.976C733.194 276.505 732.744 277.54 732.196 278.26C731.668 278.965 731.63 279.081 731.709 279.704C731.844 280.623 731.551 283.57 731.203 285.115C730.886 286.262 730.454 287.374 729.913 288.434C728.566 291.228 727.55 293.725 727.295 294.88C727.111 295.992 726.993 297.114 726.943 298.24C726.883 299.568 726.748 300.858 726.65 301.131C726.515 301.503 726.515 301.795 726.631 302.361C726.729 302.77 726.789 303.689 726.766 304.413C726.748 305.41 726.826 306.055 727.119 307.225C727.625 309.216 727.723 310.469 727.49 311.211C727.333 311.68 727.179 311.856 726.65 312.111C725.476 312.715 722.158 313.049 720.361 312.738L720.365 312.745ZM725.109 311.144C725.791 310.949 726.38 310.364 726.38 309.835C726.38 309.599 726.185 308.916 725.949 308.313C725.48 307.161 724.678 304.113 724.678 303.606C724.678 303.351 724.696 303.333 725.086 303.546L725.518 303.783V303.235C725.455 302.73 725.343 302.233 725.184 301.75C724.813 300.636 724.775 300.618 722.409 300.479L720.808 300.4L720.223 300.966C719.901 301.297 719.619 301.665 719.383 302.061C719.128 302.568 719.03 303.333 719.188 303.505C719.225 303.565 719.619 303.505 720.046 303.408C720.3 303.332 720.562 303.287 720.826 303.273C720.826 303.291 720.395 303.644 719.851 304.015C717.508 305.774 716.686 306.846 716.686 308.215C716.686 309.64 718.033 310.754 720.144 311.088C721.588 311.301 724.4 311.361 725.105 311.148L725.109 311.144ZM756.886 308.819C757.471 308.114 757.393 307.394 756.65 306.573C756.219 306.141 755.731 305.77 755.184 305.478C754.636 305.185 754.089 304.851 753.541 304.503C752.551 303.861 751.534 303.261 750.493 302.706C749.593 302.219 748.715 301.709 747.856 301.165L747.504 300.891V295.521C747.504 290.23 747.485 290.151 747.211 290.23C745.843 290.601 743.578 290.778 740.709 290.718L737.604 290.68L738.054 291.775C738.894 293.845 739.325 296.62 739.325 299.804C739.325 300.996 739.246 301.424 738.954 302.264C738.796 302.673 738.661 303.085 738.523 303.494C738.463 303.67 738.68 303.805 739.479 304.041C740.064 304.218 740.923 304.394 741.414 304.45L742.314 304.548L742.216 305.448C742.119 306.464 742.235 307.536 742.49 307.87C742.648 308.065 743.233 308.144 745.948 308.26C747.999 308.358 750.226 308.571 751.981 308.826C753.504 309.063 755.146 309.258 755.634 309.258C756.455 309.276 756.534 309.239 756.883 308.826L756.886 308.819ZM725.619 299.68C725.698 299.62 725.814 298.566 725.855 297.318C726.013 293.823 726.148 293.313 727.906 289.368C729.35 286.146 730.115 283.139 730.055 281.009L730.018 279.738L729.47 280.266C728.338 281.399 729.118 279.621 730.468 278.039C731.484 276.828 731.836 276.164 731.99 275.091C732.069 274.66 732.226 274.446 732.89 273.94C735.373 272.064 737.287 269.535 738.418 266.635C738.691 265.93 739.393 263.53 739.981 261.303C741.076 257.181 741.661 255.404 742.19 254.643C742.385 254.35 742.464 254.29 742.426 254.485C742.143 255.532 741.921 256.595 741.763 257.669C741.605 258.625 741.313 260.5 741.118 261.809C740.746 264.486 740.356 266.204 739.828 267.531L739.475 268.431L740.413 270.854C741.388 273.333 741.838 275.133 741.916 276.869L741.976 277.844L741.215 278.001C740.21 278.179 739.314 278.74 738.714 279.565C738.05 280.521 737.679 281.305 737.855 281.478C737.934 281.556 738.89 281.733 739.985 281.868C741.684 282.063 742.329 282.063 744.575 281.928C745.55 281.89 746.51 281.793 747.466 281.654C747.68 281.575 747.898 281.148 748.246 280.034C749.049 277.476 749.203 276.576 749.105 274.78L749.026 273.198L749.435 272.669C750.391 271.458 751.134 269.271 751.445 266.71C751.816 263.586 751.134 257.043 749.863 251.418C749.259 248.74 749.004 247.139 749.004 245.969V244.934L748.048 245.031C744.609 245.403 740.45 245.305 737.911 244.776C736.524 244.503 733.029 243.468 732.268 243.134L731.664 242.86L731.585 243.543C731.525 243.914 731.469 244.285 731.39 244.675C731.274 245.084 731.311 245.181 732.035 245.886C732.935 246.805 733.209 247.274 733.209 247.896C733.209 248.286 732.995 248.601 731.9 249.734C731.115 250.572 730.244 251.324 729.301 251.98L728.03 252.839L727.483 254.733C725.529 261.666 725.158 267.974 726.448 272.485L726.759 273.618L726.133 274.398C723.789 277.345 722.401 279.591 722.188 280.844C722.063 281.461 721.919 282.073 721.756 282.681C721.25 284.616 720.856 287.448 720.684 290.515C720.564 293.083 720.395 295.648 720.178 298.21L720.08 298.971L721.055 299.264C721.603 299.44 722.424 299.635 722.893 299.714C723.77 299.849 725.394 299.811 725.645 299.676L725.619 299.68ZM744.583 288.936C746.105 288.839 747.493 288.603 747.766 288.37C747.883 288.291 748.021 287.883 748.059 287.47L748.156 286.728L746.945 287.001C745.989 287.196 745.033 287.313 744.073 287.391C741.766 287.489 739.445 287.429 737.158 287.196C736.396 287.08 736.396 287.08 736.629 288.074C736.824 288.816 736.865 288.854 738.856 288.993C740.184 289.109 742.04 289.09 744.579 288.933L744.583 288.936ZM743.311 285.539C745.303 285.363 747.785 284.935 748.273 284.68C748.43 284.601 748.565 284.309 748.625 283.975L748.801 282.94L748.899 282.453L748.411 282.55C746.244 283 744.601 283.135 741.32 283.135C738.118 283.135 737.746 283.116 736.906 282.824C736.583 282.688 736.24 282.608 735.89 282.588C735.755 282.666 735.733 283.78 735.853 284.56C735.931 285.029 736.01 285.108 736.479 285.243C737.964 285.651 740.465 285.749 743.315 285.516L743.311 285.539ZM707.064 267.921C712.063 266.478 718.606 262.236 723.958 256.926C725.698 255.186 725.911 254.954 726.144 254.174L726.455 253.176C726.493 253.098 726.181 252.963 725.773 252.865C724.7 252.61 723.879 251.988 723.879 251.421C723.879 251.088 723.684 250.758 723.118 250.15C722.199 249.115 721.966 248.665 721.869 247.671L721.79 246.869L720.695 246.089C720.069 245.639 717.883 244.428 715.558 243.258C713.787 242.394 712.054 241.456 710.364 240.445C708.41 239.136 707.101 237.573 706.359 235.72C706.224 235.349 706.048 235.038 705.988 235.038C705.83 235.038 701.435 239.275 699.56 241.266C694.933 246.149 691.749 250.386 689.735 254.313C689.229 255.288 688.681 256.443 688.524 256.87L688.231 257.65L688.584 258.959C688.798 259.664 689.248 260.815 689.6 261.498C690.83 263.92 692.296 265.383 694.719 266.575C697.318 267.865 699.62 268.315 703.468 268.255C705.538 268.236 706.145 268.176 707.06 267.903L707.064 267.921ZM667.61 250.791C670.891 247.881 675.421 244.698 680.971 241.398C684.605 239.23 698.649 232.199 705.114 229.326C706.288 228.798 707.341 228.31 707.458 228.254C707.574 228.175 707.908 227.335 708.219 226.398C709.588 222.063 710.27 221.204 712.749 220.638C713.06 220.559 713.139 220.461 713.139 220.15C713.139 219.584 713.529 218.275 713.863 217.69C714.118 217.24 714.118 217.221 713.9 217.281C713.765 217.319 712.944 217.555 712.085 217.81C700.171 221.249 689.761 225.816 680.776 231.52C671.188 237.614 665.66 244.919 664.059 253.668L663.943 254.313L665.116 253.161C665.743 252.516 666.875 251.463 667.618 250.818L667.61 250.791ZM755.99 252.453C756.946 251.965 758.431 249.719 758.979 247.941C759.136 247.315 759.448 246.73 759.898 246.243C761.341 244.641 762.534 241.731 762.553 239.74C762.553 236.635 760.794 235.443 758.236 236.77C757.903 236.928 757.633 237.044 757.591 237.006C757.456 236.871 758.176 236.166 759.058 235.619C760.209 234.858 760.426 234.408 760.426 232.788C760.443 231.478 760.054 230.196 759.313 229.116C758.96 228.588 758.825 228.239 758.881 228.021L759.234 226.713C759.721 224.973 759.545 222.981 758.784 221.714C757.651 219.801 756.264 218.864 754.329 218.706L753.196 218.628L753.86 219.37C755.833 221.5 756.789 224.174 756.399 226.461C756.204 227.635 756.028 227.868 754.895 228.318L754.231 228.591L754.31 229.491C754.445 230.958 754.194 232.03 753.256 234.003C752.788 235 752.435 235.896 752.476 235.994C752.593 236.328 753.883 236.95 754.899 237.205L755.896 237.441L755.27 237.655C754.449 237.91 754.273 238.281 754.273 239.628C754.273 240.858 754.449 241.368 755.345 242.714C755.754 243.299 756.028 243.906 756.069 244.255C756.148 244.803 756.129 244.84 755.679 244.998C755.169 245.141 754.644 245.226 754.115 245.253C752.278 245.369 752.143 245.429 751.321 246.209C750.579 246.914 750.56 246.951 750.56 247.731C750.56 248.804 750.969 250.975 751.224 251.268C751.558 251.62 753.41 252.539 754.134 252.674C754.758 252.83 755.418 252.754 755.99 252.46V252.453ZM728.938 250.99C730.13 250.053 731.068 249.115 731.593 248.313C731.926 247.825 731.945 247.728 731.788 247.315C731.514 246.689 729.718 245.069 728.72 244.581C728.055 244.283 727.352 244.08 726.631 243.978L725.401 243.82L724.64 242.864C723.058 240.91 722.18 239.388 720.928 236.436C719.833 233.935 718.876 232.473 717.354 231.025C716.728 230.44 716.281 229.953 716.319 229.953C716.398 229.953 717.14 230.324 717.999 230.774C719.424 231.535 719.6 231.595 720.245 231.498C722.57 231.224 724.621 228.55 725.364 224.8C725.578 223.746 726.009 222.67 726.459 222.025C726.478 222.006 727.378 222.591 728.431 223.353C731.109 225.246 731.694 225.539 733.216 225.599C734.214 225.636 734.78 225.561 736.576 225.13C740.405 224.193 744.545 223.821 747.065 224.155C748.49 224.35 750.541 224.976 752.064 225.696C753.568 226.401 753.86 226.439 754.348 226.008C754.756 225.655 754.756 225.599 754.756 224.29C754.738 222.355 754.033 220.266 752.96 219.018C752.413 218.373 750.871 217.319 749.345 216.516C748.802 216.228 748.262 215.936 747.725 215.639C747.001 215.208 746.184 215.268 743.956 215.853C741.376 216.516 740.694 216.516 737.746 215.755C735.245 215.129 735.091 215.11 732.628 215.5C731.319 215.695 728.038 215.579 726.943 215.286C726.395 215.129 725.848 214.975 725.323 214.78C724.366 214.409 722.705 214.349 721.201 214.623C718.213 215.151 715.948 216.771 715.126 218.976C714.695 220.09 714.755 220.619 715.321 220.968C716.221 221.534 717.41 223.079 717.41 223.683C717.41 223.72 717.118 223.469 716.784 223.116C715.944 222.239 715.183 221.845 714.283 221.845C713.7 221.861 713.134 222.04 712.648 222.36C712.161 222.681 711.774 223.131 711.53 223.66C711.267 224.35 711.046 225.055 710.866 225.771C710.319 227.763 709.831 228.82 708.796 230.226C707.878 231.498 707.743 232.064 708.073 233.489C708.894 237.081 710.319 238.529 716.274 241.908C719.398 243.685 720.999 244.683 722.173 245.56C723.073 246.224 723.091 246.265 723.013 246.771C722.836 247.945 723.579 249.213 725.045 250.248C725.416 250.503 725.649 250.776 725.649 250.971C725.649 251.324 726.646 251.811 727.366 251.811C727.775 251.811 728.09 251.635 728.93 250.99H728.938ZM753.02 244.405C755.285 244.484 755.401 244.308 754.194 242.901C752.923 241.435 752.574 240.246 753.043 238.938L753.238 238.431L752.435 238.041C752.161 237.906 751.888 237.768 751.614 237.67C751.479 238.199 751.34 238.705 751.224 239.234C750.931 240.426 750.579 243.513 750.56 244.821C750.56 244.938 750.755 244.9 751.089 244.686C751.558 244.413 751.794 244.375 753.024 244.413L753.02 244.405ZM745.423 244.289C746.791 244.21 748.198 244.113 748.569 244.053L749.251 243.955L749.33 241.709C749.446 238.506 749.915 236.613 751.303 233.583C752.278 231.434 752.709 229.559 752.495 228.153C752.416 227.549 752.379 227.508 751.558 227.155C750.054 226.558 748.488 226.131 746.889 225.884C745.348 225.67 740.814 225.786 739.115 226.12C738.41 226.236 737.124 226.51 736.265 226.724C734.135 227.211 733.003 227.155 731.383 226.45C729.781 225.745 728.765 225.104 727.809 224.204C727.048 223.499 726.969 223.461 726.774 223.698C726.616 223.874 726.538 224.403 726.481 225.535C726.421 227.275 726.148 228.19 725.386 229.42C725.217 229.673 725.073 229.942 724.955 230.223C724.955 230.283 725.54 230.965 726.264 231.708C728.765 234.306 729.995 234.97 731.968 234.831C732.613 234.771 733.063 234.794 733.063 234.869C733.063 235.026 731.791 236.02 731.266 236.294C731.011 236.429 730.955 236.568 730.993 236.86L731.304 238.911C731.48 240.085 731.615 240.629 731.791 240.786C732.26 241.176 734.683 242.429 736.205 243.051C738.196 243.854 739.291 244.146 740.814 244.281C742.689 244.439 742.726 244.439 745.423 244.281V244.289ZM729.271 242.14C729.309 242.08 729.174 240.948 728.919 239.639C728.608 237.861 728.431 237.216 728.236 237.04C728.101 236.924 727.378 236.414 726.654 235.889C725.703 235.205 724.802 234.454 723.958 233.643L722.611 232.315L721.888 232.686L721.126 233.095C721.19 233.4 721.295 233.695 721.438 233.973C721.651 234.441 722.083 235.593 722.394 236.53C723.215 238.971 723.86 240.145 725.48 242.271L726.084 243.074L727.235 243.25C727.88 243.348 728.525 243.486 728.701 243.543C728.975 243.659 729.013 243.603 729.091 242.976C729.129 242.703 729.189 242.41 729.268 242.136L729.271 242.14ZM754.018 217.844C755.015 217.746 755.191 217.608 754.76 217.161C754.486 216.888 753.86 216.869 753.354 217.101C753.02 217.259 752.945 217.218 752.416 216.651C751.869 216.048 751.831 216.025 751.145 216.104C750.519 216.183 750.421 216.164 750.343 215.909C750.099 215.49 749.795 215.108 749.443 214.776C748.999 214.272 748.444 213.878 747.823 213.625C746.611 213.156 745.929 213.216 744.774 213.861C741.433 215.676 741.571 215.658 738.346 214.836C735.339 214.075 733.093 213.295 732.369 212.804C731.765 212.395 730.475 211.945 729.399 211.806C728.596 211.69 728.09 211.866 727.329 212.489L726.92 212.823L727.291 213.468C727.798 214.368 727.741 214.424 726.98 213.76C726.159 213.078 725.184 212.609 724.558 212.586C724.108 212.586 722.78 213.171 722.623 213.426C722.563 213.505 722.975 213.603 723.523 213.64C724.089 213.7 724.869 213.895 725.398 214.109C726.766 214.694 727.468 214.889 728.716 215.009C730.085 215.144 732.564 214.99 732.856 214.754C733.014 214.619 733.441 214.596 734.341 214.675C735.534 214.754 736.021 214.87 738.853 215.631C740.495 216.081 741.646 216.04 743.6 215.515C744.5 215.26 745.633 215.009 746.101 214.949C746.904 214.87 747.058 214.911 748.31 215.478C750.301 216.378 751.359 216.944 751.944 217.469C752.529 217.975 752.608 217.975 754.014 217.859L754.018 217.844ZM742.884 214.428L744.076 213.801L744.039 212.59C744.02 211.75 743.979 210.929 743.941 210.111L743.844 208.863L742.651 209.781C741.946 210.329 741.264 210.738 740.971 210.798C740.113 210.955 735.875 210.798 735.481 210.584C734.957 210.196 734.466 209.765 734.015 209.294L732.92 208.18L732.901 208.844C732.901 209.196 732.864 209.8 732.785 210.171C732.688 210.876 732.688 210.895 733.449 211.851C733.858 212.38 734.191 212.849 734.191 212.905C734.191 213.276 739.835 215.035 741.106 215.054C741.515 215.054 742.025 214.878 742.884 214.428ZM740.619 209.991C742.025 209.718 742.708 208.701 743.236 206.125C743.784 203.35 744.058 198.996 743.803 197.14C743.566 195.46 741.691 194.718 738.118 194.834C735.89 194.913 734.971 195.126 734.21 195.771C733.741 196.161 733.741 196.203 733.528 198.055C733.138 201.61 733.723 206.669 734.739 208.563C735.226 209.481 735.658 209.811 736.554 209.969C737.57 210.145 739.738 210.145 740.615 209.988L740.619 209.991Z" fill="black"/>
<path d="M977.697 71.5627C981.569 71.1619 984.506 67.8242 984.373 63.8184C984.239 59.8131 980.901 56.6086 976.896 56.6086H976.629C972.49 56.7422 969.286 60.2135 969.419 64.3525C969.553 66.3553 970.354 68.091 971.555 69.2926C967.016 78.2385 960.073 84.7807 949.659 90.2549C942.583 93.9934 935.24 95.3287 927.897 94.3943C921.889 93.593 917.216 90.923 914.278 86.5164C910.006 79.9742 909.606 72.8975 913.211 65.8213C915.748 60.7475 919.752 57.009 922.289 55.1398C921.755 53.4041 920.954 50.4668 920.554 48.3307C901.194 62.35 903.197 81.3094 909.072 90.2549C913.477 96.9311 922.423 101.07 932.303 101.07C934.973 101.07 937.643 100.803 940.314 100.136C957.403 96.7975 970.354 86.65 977.697 71.5627ZM1001.2 55.0066C991.048 43.1234 976.095 36.5811 959.005 36.5811H956.869C955.668 34.1779 953.131 32.5754 950.327 32.5754H950.06C945.921 32.709 942.717 36.1803 942.85 40.3197C942.984 44.325 946.322 47.5295 950.327 47.5295H950.594C953.531 47.3959 956.068 45.5266 957.136 42.9898H959.539C969.686 42.9898 979.299 45.927 987.978 51.6684C994.653 56.0746 999.46 61.816 1002.13 68.7586C1004.4 74.3664 1004.27 79.8406 1001.86 84.5139C998.125 91.5902 991.85 95.4623 983.572 95.4623C978.231 95.4623 973.158 93.8598 970.487 92.6582C969.019 93.9934 966.348 96.1295 964.479 97.4652C970.22 100.135 976.095 101.604 981.702 101.604C994.52 101.604 1004 94.5275 1007.6 87.4512C1011.48 79.707 1011.21 66.3553 1001.2 55.0066ZM933.371 73.832C933.505 77.8377 936.842 81.0418 940.848 81.0418H941.115C945.254 80.9086 948.458 77.4369 948.324 73.2979C948.191 69.2922 944.853 66.0881 940.848 66.0881H940.581C940.314 66.0881 939.913 66.0881 939.646 66.2213C934.172 57.1422 931.902 47.2623 932.704 36.5807C933.237 28.5697 935.908 21.6266 940.581 15.8852C944.452 10.9451 951.929 8.5418 957.003 8.40861C971.155 8.14139 977.163 25.7656 977.564 32.8422C979.299 33.2426 982.236 34.1775 984.239 34.8451C982.637 13.2156 969.286 2 956.469 2C944.452 2 933.371 10.6787 928.965 23.4963C922.823 40.5865 926.829 57.009 934.305 69.9602C933.638 70.8947 933.237 72.3631 933.371 73.832Z" fill="#764ABC"/>
</svg>
