<svg width="105" height="105" viewBox="0 0 105 105" fill="none" xmlns="http://www.w3.org/2000/svg">
<path d="M98.535 14.605L78.354 4.88899C77.2143 4.33948 75.9319 4.15814 74.6846 4.37011C73.4372 4.58208 72.2867 5.17686 71.3925 6.07199L5.33 66.3C4.52847 67.0273 4.04868 68.0432 3.99617 69.1243C3.94366 70.2053 4.32273 71.2629 5.05 72.0645C5.1375 72.159 5.225 72.25 5.3195 72.334L10.713 77.234C11.4178 77.8754 12.325 78.2497 13.277 78.2919C14.229 78.3341 15.1657 78.0416 15.9245 77.465L95.497 17.125C96.098 16.6689 96.8144 16.3897 97.566 16.3186C98.317 16.2476 99.073 16.3877 99.749 16.7231C100.424 17.0585 100.993 17.5758 101.391 18.217C101.789 18.8581 102 19.5975 102 20.352V20.1175C102 18.9656 101.675 17.8372 101.062 16.862C100.449 15.8868 99.573 15.1045 98.535 14.605Z" fill="#0065A9"/>
<path d="M98.535 91.395L78.354 101.115C77.214 101.662 75.932 101.843 74.685 101.631C73.438 101.419 72.2875 100.825 71.3925 99.932L5.33 39.7C4.52847 38.9727 4.04868 37.9568 3.99617 36.8758C3.94366 35.7947 4.32273 34.7371 5.05 33.9355C5.1375 33.841 5.225 33.75 5.3195 33.666L10.713 28.766C11.4185 28.1219 12.3277 27.7459 13.2821 27.7037C14.2365 27.6615 15.1754 27.9557 15.935 28.535L95.497 88.875C96.098 89.3311 96.8144 89.6104 97.566 89.6814C98.317 89.7524 99.073 89.6123 99.749 89.2769C100.424 88.9415 100.993 88.4242 101.391 87.783C101.789 87.1419 102 86.4025 102 85.648V85.9C101.996 87.0488 101.669 88.1733 101.057 89.1451C100.444 90.1168 99.57 90.8965 98.535 91.395Z" fill="#007ACC"/>
<path d="M78.354 101.115C77.214 101.662 75.9319 101.843 74.685 101.631C73.438 101.419 72.2875 100.825 71.3925 99.932C71.8951 100.428 72.533 100.764 73.2261 100.899C73.9192 101.034 74.6368 100.962 75.289 100.691C75.9411 100.42 76.4988 99.963 76.8921 99.376C77.2854 98.79 77.4969 98.1 77.5 97.394V8.60603C77.5006 7.89653 77.2906 7.20283 76.8966 6.6128C76.5026 6.02277 75.9423 5.56294 75.2868 5.29158C74.6313 5.02022 73.9099 4.94953 73.2142 5.08846C72.5184 5.2274 71.8795 5.56971 71.3785 6.07203C72.2728 5.17723 73.4231 4.58242 74.6702 4.36986C75.9174 4.1573 77.1997 4.3375 78.34 4.88553L98.517 14.5875C99.559 15.0845 100.438 15.8658 101.054 16.8412C101.671 17.8165 101.998 18.9463 102 20.1V85.9C102 87.0528 101.675 88.1823 101.061 89.1582C100.448 90.1341 99.571 90.9168 98.531 91.416L78.354 101.115Z" fill="#1F9CF0"/>
</svg>
